<svg width="114" height="18" viewBox="0 0 114 18" fill="none" xmlns="http://www.w3.org/2000/svg">
<path d="M5.76 4.04V11.864C7.072 11.864 7.968 11.584 8.448 11.024C8.928 10.448 9.168 9.448 9.168 8.024C9.168 6.6 8.928 5.584 8.448 4.976C7.968 4.352 7.072 4.04 5.76 4.04ZM6.96 16.52V17H0.96V16.52H2.16V4.04H0.96V3.56H5.736C10.44 3.336 12.792 4.848 12.792 8.096C12.792 9.536 12.2 10.632 11.016 11.384C9.832 12.136 8.08 12.456 5.76 12.344V16.52H6.96ZM19.2834 16.52H20.4834V17H14.4834V16.52H15.6834V1.4H14.4834V0.92H19.2834V16.52ZM33.8109 16.52C33.6509 16.68 33.3469 16.824 32.8989 16.952C32.4509 17.064 31.9309 17.12 31.3389 17.12C30.0269 17.12 29.2029 16.728 28.8669 15.944C28.0669 16.776 26.8429 17.192 25.1949 17.192C24.3149 17.192 23.5869 16.992 23.0109 16.592C22.4509 16.176 22.1709 15.568 22.1709 14.768C22.1709 13.696 22.5869 12.872 23.4189 12.296C24.2509 11.704 25.7069 11.288 27.7869 11.048L28.7469 10.928V9.752C28.7469 8.36 28.6429 7.424 28.4349 6.944C28.2269 6.464 27.8109 6.224 27.1869 6.224C26.5789 6.224 26.1869 6.312 26.0109 6.488C25.8349 6.648 25.7709 6.84 25.8189 7.064C25.8669 7.272 25.9469 7.552 26.0589 7.904C26.1709 8.256 26.2269 8.536 26.2269 8.744C26.2269 9.24 26.0509 9.664 25.6989 10.016C25.3629 10.352 24.9469 10.52 24.4509 10.52C23.9709 10.52 23.5549 10.352 23.2029 10.016C22.8509 9.664 22.6749 9.24 22.6749 8.744C22.6749 7.928 23.0909 7.232 23.9229 6.656C24.7709 6.064 26.0269 5.768 27.6909 5.768C29.3709 5.768 30.5629 6.096 31.2669 6.752C31.9869 7.408 32.3469 8.568 32.3469 10.232V14.552C32.3469 15.4 32.4509 15.936 32.6589 16.16C32.8669 16.368 33.2509 16.408 33.8109 16.28V16.52ZM25.5069 14.288C25.5869 14.896 25.8109 15.368 26.1789 15.704C26.5469 16.024 26.9709 16.184 27.4509 16.184C27.9469 16.184 28.3789 15.944 28.7469 15.464V11.384L27.8829 11.504C27.1469 11.6 26.5469 11.88 26.0829 12.344C25.6349 12.808 25.4429 13.456 25.5069 14.288ZM47.8491 16.52H49.0491V17H43.0491V16.52H44.2491V9.8C44.2491 8.664 44.0811 7.856 43.7451 7.376C43.4091 6.896 42.9051 6.656 42.2331 6.656C41.3211 6.656 40.5931 7.136 40.0491 8.096V16.52H41.2491V17H35.2491V16.52H36.4491V6.44H35.2491V5.96H40.0491V7.208C40.3531 6.792 40.8251 6.44 41.4651 6.152C42.1211 5.848 42.8251 5.696 43.5771 5.696C46.4251 5.696 47.8491 7.24 47.8491 10.328V16.52ZM55.1338 6.44V12.296C55.1338 13.672 55.1898 14.512 55.3018 14.816C55.4138 15.104 55.5338 15.352 55.6618 15.56C55.9018 15.976 56.3178 16.184 56.9098 16.184C57.5178 16.184 57.9418 16.104 58.1818 15.944V16.424C57.4138 16.968 56.5738 17.24 55.6618 17.24C54.3178 17.24 53.2938 16.92 52.5898 16.28C51.8858 15.64 51.5338 14.496 51.5338 12.848V6.44H49.7578V5.96H51.5338C52.3018 5.832 52.9818 5.464 53.5738 4.856C54.1658 4.232 54.5738 3.376 54.7978 2.288H55.1338V5.96H57.9178V6.44H55.1338ZM60.3497 17H59.8697V11.408H60.3497C60.3497 12.912 60.8857 14.192 61.9577 15.248C63.0457 16.304 64.3657 16.832 65.9177 16.832C66.5577 16.832 67.0697 16.648 67.4537 16.28C67.8537 15.896 68.0537 15.392 68.0537 14.768C68.0537 14.064 67.5977 13.464 66.6857 12.968C66.1897 12.712 65.3337 12.312 64.1177 11.768C62.9017 11.208 62.0457 10.736 61.5497 10.352C60.5577 9.584 60.1177 8.568 60.2297 7.304C60.3577 6.04 60.8377 5.064 61.6697 4.376C62.5017 3.672 63.4377 3.32 64.4777 3.32C65.5337 3.32 66.4777 3.464 67.3097 3.752C68.1577 4.024 68.6377 4.16 68.7497 4.16C69.0697 4.16 69.2297 3.88 69.2297 3.32H69.7097V7.712H69.2297C69.2297 6.56 68.8057 5.624 67.9577 4.904C67.1097 4.168 66.0217 3.8 64.6937 3.8C64.1017 3.8 63.6377 3.976 63.3017 4.328C62.9657 4.664 62.7977 5.04 62.7977 5.456C62.7977 5.872 62.8537 6.192 62.9657 6.416C63.0777 6.64 63.2697 6.848 63.5417 7.04C63.8297 7.216 64.0777 7.36 64.2857 7.472C64.4937 7.584 64.8217 7.736 65.2697 7.928C65.7337 8.12 66.0537 8.256 66.2297 8.336C67.1097 8.736 67.6297 8.976 67.7897 9.056C67.9497 9.12 68.1817 9.232 68.4857 9.392C68.7897 9.552 69.0137 9.696 69.1577 9.824C69.3177 9.952 69.5177 10.112 69.7577 10.304C69.9977 10.496 70.1737 10.696 70.2857 10.904C70.3977 11.096 70.5097 11.32 70.6217 11.576C70.8457 12.088 70.9257 12.688 70.8617 13.376C70.7337 14.672 70.2457 15.664 69.3977 16.352C68.5657 17.024 67.4377 17.36 66.0137 17.36C64.7337 17.36 63.4617 17.032 62.1977 16.376C61.7657 16.152 61.4457 16.04 61.2377 16.04C60.6457 16.04 60.3497 16.36 60.3497 17ZM85.3725 16.52H86.5725V17H80.5725V16.52H81.7725V9.8C81.7725 8.664 81.6045 7.856 81.2685 7.376C80.9325 6.896 80.4285 6.656 79.7565 6.656C78.8445 6.656 78.1165 7.136 77.5725 8.096V16.52H78.7725V17H72.7725V16.52H73.9725V1.4H72.7725V0.92H77.5725V7.208C77.8765 6.776 78.3485 6.416 78.9885 6.128C79.6285 5.84 80.3325 5.696 81.1005 5.696C83.9485 5.696 85.3725 7.24 85.3725 10.328V16.52ZM98.8493 12.2H91.6013C91.7613 15.016 92.8573 16.424 94.8893 16.424C95.4333 16.424 96.0493 16.296 96.7373 16.04C97.4413 15.784 97.9533 15.424 98.2733 14.96L98.6093 15.2C98.2573 15.792 97.6573 16.28 96.8093 16.664C95.9613 17.048 95.1133 17.24 94.2653 17.24C93.4333 17.24 92.6813 17.16 92.0093 17C91.3373 16.824 90.6813 16.536 90.0413 16.136C89.4013 15.736 88.8973 15.136 88.5293 14.336C88.1773 13.536 88.0013 12.568 88.0013 11.432C88.0013 9.496 88.5373 8.064 89.6093 7.136C90.6813 6.192 91.9773 5.72 93.4973 5.72C95.0333 5.72 96.3053 6.232 97.3133 7.256C98.3373 8.28 98.8493 9.928 98.8493 12.2ZM91.5773 11.72H95.4893C95.4893 10.248 95.3293 8.96 95.0093 7.856C94.7053 6.752 94.2093 6.2 93.5213 6.2C92.8333 6.2 92.3373 6.736 92.0333 7.808C91.7293 8.864 91.5773 10.08 91.5773 11.456V11.72ZM105.129 17.288C103.833 17.288 102.713 16.776 101.769 15.752C100.825 14.728 100.353 13.28 100.353 11.408C100.353 9.536 100.817 8.072 101.745 7.016C102.673 5.96 103.801 5.432 105.129 5.432C105.785 5.432 106.401 5.568 106.977 5.84C107.553 6.112 107.969 6.52 108.225 7.064V1.4H107.025V0.92H111.825V16.52H113.025V17H108.225V15.896C107.793 16.824 106.761 17.288 105.129 17.288ZM108.225 11.744V7.784C107.793 6.92 107.225 6.488 106.521 6.488C105.833 6.488 105.241 6.888 104.745 7.688C104.249 8.488 104.001 9.76 104.001 11.504C104.001 13.232 104.257 14.496 104.769 15.296C105.281 16.096 105.897 16.44 106.617 16.328C107.017 16.264 107.321 16.136 107.529 15.944C107.993 15.496 108.225 14.096 108.225 11.744Z" fill="#413A3C"/>
</svg>
